<?xml version="1.0" encoding="utf-8"?>
<!-- Generator: Adobe Illustrator 27.0.1, SVG Export Plug-In . SVG Version: 6.00 Build 0)  -->
<svg version="1.1" id="Layer_1" xmlns="http://www.w3.org/2000/svg" xmlns:xlink="http://www.w3.org/1999/xlink" x="0px" y="0px"
	 viewBox="0 0 507.5 582.1" style="enable-background:new 0 0 507.5 582.1;" xml:space="preserve">
<style type="text/css">
	.st0{fill:#FFD200;}
	.st1{fill:#8F401C;}
	.st2{fill:none;}
</style>
<g>
	<path class="st0" d="M253.8,499.4c109.8,0,198.9-89,198.9-198.9c0-109.8-89-198.9-198.9-198.9s-198.9,89-198.9,198.9
		C54.9,410.4,143.9,499.4,253.8,499.4"/>
	<path class="st0" d="M448.8,300.5c0,108.8-88.2,197-197,197s-197-88.2-197-197s88.2-197,197-197S448.8,191.7,448.8,300.5"/>
	<path class="st1" d="M330.9,394.2c-2.3,0-4.6-0.6-6.7-1.9c-77.6-46.7-169.5-19.7-170.4-19.4c-6.8,2.1-14.1-1.8-16.1-8.6
		c-2.1-6.8,1.8-14,8.6-16.1c4.2-1.3,103.7-30.7,191.3,22c6.1,3.7,8.1,11.6,4.4,17.8C339.6,392,335.3,394.2,330.9,394.2"/>
	<path class="st1" d="M353.2,341.1c-2.6,0-5.2-0.7-7.6-2C248.2,283,150,315.7,149,316c-8,2.7-16.7-1.5-19.4-9.5
		c-2.7-8,1.5-16.7,9.5-19.4c4.5-1.6,112.4-37.4,221.8,25.5c7.3,4.2,9.8,13.6,5.6,20.9C363.7,338.4,358.5,341.1,353.2,341.1"/>
	<path class="st1" d="M377.4,280.8c-3,0-5.9-0.7-8.7-2.2c-112.3-59-227.7-23.7-228.9-23.3c-9.9,3.1-20.5-2.4-23.6-12.3
		c-3.1-9.9,2.4-20.5,12.3-23.6c5.3-1.7,131.6-40.3,257.7,25.9c9.2,4.8,12.7,16.2,7.9,25.4C390.8,277.2,384.2,280.8,377.4,280.8"/>
</g>
<rect x="28.8" y="101.7" class="st2" width="1025.8" height="397.8"/>
</svg>
