<?xml version="1.0" encoding="UTF-8"?><svg id="Layer_1" xmlns="http://www.w3.org/2000/svg" viewBox="0 0 619.26 647.55"><path d="M131.21,118.81c-7.15-7.68-14.48-15.9-16.79-26.03-3.92-17.2,7.74-34.08,20.58-46.59,20.26-19.74,35.38-31.34,62.44-40.56,6.62-2.26,23.53-7.07,30.27-5.21,20.83,5.76,22.38,22.94,24.13,32.98,8.95,51.27,14.21,123.52,16.13,175.51,.5,13.52-14.98,19.82-28.78,18,0,0-76.35-74.13-107.98-108.1Z" style="fill:#749f71;"/><path d="M122.54,505.97c-7.94,6.95-16.43,14.06-26.86,16.3-17.73,3.8-35.07-7.51-47.9-19.98-20.25-19.68-35.85-43.85-45.25-70.13-2.3-6.43-3.49-13.37-1.55-19.91,6.01-20.23,23.7-21.73,34.04-23.43,52.82-8.69,127.24-13.79,180.79-15.66,13.92-.49,25.16,15.02,18.44,27.95-6.72,12.93-76.61,74.14-111.71,104.86Z" style="fill:#ffd008;"/><path d="M345.48,592.48c-.37,10.37-3.76,24.34-7.97,33.88-7.15,16.21-25.42,15.9-43.34,18.76-28.27,4.52-57.59,2.74-85.06-5.16-6.72-1.93-19.05-11.25-22.04-17.41-12.04-24.81,.2-40.45,4.8-49.6,23.51-46.75,42.2-91.34,85.56-137.32,9.41-9.98,33.06-14.69,40.73,3.39,7.67,18.08,28.95,108.43,27.32,153.47Z" style="fill:#ce4a27;"/><path d="M518.12,448.45c8.64,6.1,33.61,31.34,38.03,40.78,7.51,16.05,2.09,27.33-7.81,42.11-15.63,23.32-47.06,43.23-71.58,57.61-6,3.52-12.74,6.09-19.74,5.6-21.63-1.52-38.24-27.07-42.09-36.54-19.7-48.38-38.98-92.52-49.47-151.86-1.98-11.17,21.99-31.03,31.98-30.88,27.91,.44,82.47,46.21,120.69,73.18Z" style="fill:#904120;"/><path d="M541.17,225.85c10.3-2.76,30.49-2.48,40.85,.06,17.6,4.31,27.28,25.38,30.58,42.72,6.75,35.39,8.44,58.3,4.72,85.88-.91,6.75-3.04,13.47-7.8,18.47-14.7,15.47-31.22,9.12-41.25,6.15-51.24-15.2-120.13-43-168.86-64.62-12.67-5.62-9.51-13.69-3.59-33.01,5.92-19.32,99.8-43.45,145.35-55.65Z" style="fill:#70c9c6;"/><path d="M390.26,60.56c3.05-9.94,9.54-27.7,17.25-34.88,13.1-12.2,12.72-10.35,37.06-7.13,28.39,3.76,49.9,15.14,72.01,32.83,5.41,4.33,24.48,21.76,27.71,27.8,11.25,21.02-13.53,39.7-21.45,46.38-40.46,34.11-79.74,60.75-124.46,89.39-11.63,7.45-44.62,18.89-47.32-8.41-2.7-27.3,25.7-102.02,39.21-145.98Z" style="fill:#b2852d;"/></svg>